<?xml version="1.0" standalone="no"?>
<!DOCTYPE svg PUBLIC "-//W3C//DTD SVG 20010904//EN"
 "http://www.w3.org/TR/2001/REC-SVG-20010904/DTD/svg10.dtd">
<svg version="1.0" xmlns="http://www.w3.org/2000/svg"
 width="728.000000pt" height="512.000000pt" viewBox="0 0 728.000000 512.000000"
 preserveAspectRatio="xMidYMid meet">
<metadata>
Created by potrace 1.15, written by Peter Selinger 2001-2017
</metadata>
<g transform="translate(0.000000,512.000000) scale(0.100000,-0.100000)"
fill="#000000" stroke="none">
<path d="M4908 5103 c-15 -10 -338 -328 -718 -708 l-690 -691 0 -42 c0 -41 4
-46 166 -208 l167 -165 -44 -46 c-67 -71 -141 -138 -151 -138 -5 0 -377 368
-827 818 -805 805 -818 817 -857 817 -38 0 -47 -8 -249 -210 -194 -195 -209
-212 -209 -245 0 -34 33 -69 710 -746 678 -677 711 -709 745 -709 34 0 49 12
200 165 90 91 168 165 174 165 6 0 52 -42 103 -93 l92 -92 -825 -826 c-810
-811 -825 -826 -825 -865 0 -37 9 -47 208 -246 200 -201 209 -208 247 -208 39
0 47 7 292 252 139 139 253 247 253 240 0 -7 -25 -150 -56 -318 -63 -341 -63
-352 2 -376 l34 -12 0 -223 0 -223 -89 0 c-108 0 -149 -13 -165 -52 -17 -39
-9 -74 22 -98 25 -20 40 -20 1027 -18 952 3 1004 4 1023 21 26 24 32 58 16 96
-17 40 -65 54 -172 49 l-82 -3 0 225 0 226 34 12 c69 25 72 -9 -79 824 -75
414 -139 764 -142 778 -4 17 165 -145 524 -502 489 -488 531 -528 562 -528 31
0 53 19 233 198 110 108 206 209 214 224 9 17 12 39 8 55 -4 19 -222 244 -693
716 -377 378 -701 697 -719 709 -23 14 -41 18 -60 13 -17 -4 -90 -69 -193
-171 l-165 -165 -97 98 -97 98 825 825 c775 776 825 827 825 860 0 32 -18 52
-213 247 -226 227 -232 231 -289 196z m299 -440 c-4 -5 -1192 -1194 -1224
-1225 l-33 -32 -30 29 c-16 16 -30 34 -30 39 0 6 131 141 290 300 278 277 290
291 290 327 0 45 -36 79 -83 79 -27 0 -68 -36 -327 -295 l-296 -295 -34 35
-34 36 629 629 630 630 127 -127 c70 -70 126 -128 125 -130z m-2624 -751 l628
-628 -36 -34 -35 -34 -293 292 c-288 287 -293 292 -333 292 -62 0 -101 -59
-73 -112 7 -12 140 -151 296 -308 l283 -285 -35 -34 -34 -35 -626 625 c-344
344 -625 630 -625 635 0 9 241 254 250 254 3 0 288 -283 633 -628z m2877
-2377 c-69 -69 -128 -124 -133 -122 -11 3 -1247 1239 -1247 1246 0 3 14 21 31
39 l30 34 252 -252 c336 -336 341 -340 374 -340 46 1 83 42 83 91 0 17 -81
105 -295 319 l-296 296 33 36 33 36 630 -629 630 -629 -125 -125z m-1623 1123
c181 -182 193 -196 203 -243 6 -27 51 -275 101 -550 49 -275 112 -624 140
-775 28 -151 51 -281 52 -288 2 -10 -137 -12 -687 -12 -379 0 -692 3 -695 5
-2 3 12 99 33 213 21 114 51 281 67 372 l30 165 349 350 c200 201 349 359 350
370 1 11 2 29 1 39 0 11 -76 95 -168 188 l-167 168 94 95 c52 52 97 95 100 95
3 0 92 -87 197 -192z m-735 -481 c-272 -273 -292 -295 -292 -328 0 -56 56 -98
106 -79 15 6 155 139 312 295 l287 285 34 -35 35 -34 -627 -628 -628 -627
-129 129 -130 130 627 627 628 628 35 -35 35 -35 -293 -293z m1160 -1782 l-3
-225 -269 0 -270 0 0 150 c0 136 -2 152 -20 170 -30 30 -65 35 -102 13 l-33
-19 -3 -157 -3 -157 -269 0 -269 0 -3 225 -3 225 625 0 625 0 -3 -225z"/>
<path d="M3605 1748 c-37 -20 -45 -40 -45 -118 0 -67 3 -79 23 -98 31 -30 89
-30 117 0 16 18 20 35 20 97 -1 79 -9 99 -47 119 -27 15 -42 15 -68 0z"/>
<path d="M3235 497 c-45 -38 -47 -165 -4 -208 29 -29 84 -25 114 7 22 23 25
37 25 96 0 64 -3 72 -29 99 -36 35 -70 37 -106 6z"/>
<path d="M3939 491 c-26 -27 -29 -35 -29 -99 0 -59 3 -73 25 -96 30 -32 85
-36 114 -7 43 43 41 170 -4 208 -36 31 -70 29 -106 -6z"/>
</g>
</svg>
